<svg width="32" height="32" viewBox="0 0 32 32" fill="none" xmlns="http://www.w3.org/2000/svg">
<rect width="32" height="32" fill="#171A15"/>
<path d="M16.1201 14.9468C16.0365 14.9799 16.0228 14.9352 15.9703 14.9079C15.3496 14.5752 14.6433 13.8183 13.972 13.4389C12.8649 12.8104 11.7733 12.7832 10.6078 13.3085C10.3334 13.433 9.96957 13.7891 9.77305 13.8397C9.49286 13.9136 9.22238 13.8455 8.96554 13.8708C7.87396 13.9779 6.79212 14.0985 5.70054 14.1997C5.50207 14.2172 5.24329 14.0927 5.10709 14.295L9.82753 14.6491C11.0495 18.4823 13.8261 21.5021 17.8266 22.3894C19.9339 22.8564 22.0392 22.6073 24.1893 22.9926C26.3607 23.3818 28.4661 24.1153 30.5305 24.8722L30.7212 24.8683C30.9274 24.7204 30.9236 24.5161 30.7329 24.3508L22.4205 17.8227C22.3933 17.7351 23.1619 17.0055 23.2884 16.8615C24.8333 15.1122 26.6818 12.4387 27.5243 10.2614C27.6819 9.85477 28.1275 8.76319 27.2577 8.90523C26.495 9.02976 24.773 9.99681 24.0589 10.4229C21.7609 11.7928 19.389 13.721 18.0328 16.0482C17.9239 16.1299 17.5425 15.9061 17.4472 15.8088C18.3772 14.0401 19.9261 12.7306 21.4087 11.4367C21.4827 10.6778 21.5411 9.90341 21.5197 9.14067C21.506 8.65617 21.4885 7.87008 21.3796 7.41866C21.3115 7.13653 21.0254 6.97892 20.7589 7.08399C20.611 7.14237 20.3055 7.48288 20.1849 7.61713C19.4961 8.37209 18.7528 9.43643 18.2196 10.312C17.3557 11.7363 16.5813 13.3494 16.1221 14.9488L16.1201 14.9468Z" fill="#A4DD7C"/>
<path d="M1.23828 14.8068C3.93901 14.8068 6.41596 15.7563 8.35589 17.3421L8.97855 16.27C6.84988 14.5869 4.16277 13.5829 1.23828 13.5829V14.8068Z" fill="#D6BA86"/>
</svg>
