<svg width="256" height="256" viewBox="0 0 256 256" fill="none" xmlns="http://www.w3.org/2000/svg">
<rect width="256" height="256" fill="#171A15"/>
<path d="M225.084 104.363C224.975 104.406 224.957 104.348 224.888 104.312C224.073 103.875 223.146 102.882 222.265 102.384C220.812 101.559 219.379 101.523 217.849 102.213C217.489 102.376 217.012 102.843 216.754 102.91C216.386 103.007 216.031 102.917 215.694 102.951C214.261 103.091 212.841 103.249 211.409 103.382C211.148 103.405 210.809 103.242 210.63 103.507L216.825 103.972C218.429 109.003 222.073 112.967 227.324 114.131C230.09 114.744 232.853 114.417 235.675 114.923C238.525 115.434 241.288 116.396 243.998 117.39L244.248 117.385C244.519 117.191 244.514 116.922 244.263 116.705L233.354 108.137C233.318 108.022 234.327 107.065 234.493 106.876C236.52 104.58 238.946 101.071 240.052 98.2133C240.259 97.6796 240.844 96.2469 239.702 96.4333C238.701 96.5968 236.441 97.866 235.504 98.4253C232.488 100.223 229.375 102.754 227.595 105.808C227.452 105.916 226.951 105.622 226.826 105.494C228.047 103.173 230.08 101.454 232.026 99.7558C232.123 98.7598 232.199 97.7434 232.171 96.7423C232.153 96.1064 232.13 95.0747 231.987 94.4822C231.898 94.1119 231.523 93.905 231.173 94.043C230.979 94.1196 230.578 94.5665 230.419 94.7427C229.515 95.7336 228.54 97.1305 227.84 98.2797C226.706 100.149 225.69 102.266 225.087 104.365L225.084 104.363Z" fill="#A4DD7C"/>
<path d="M141.54 104.83H139.847V145.518H141.54V104.83Z" fill="#A4DD7C"/>
<path d="M152.321 112.091H150.627V145.517H152.321V112.091Z" fill="#A4DD7C"/>
<path d="M152.321 104.662H150.627V110.267H152.321V104.662Z" fill="#A4DD7C"/>
<path d="M131.632 114.07V112.377H120.934V104.48H119.241V112.377H117.974V114.07H119.241V133.068C119.241 139.976 124.724 145.576 131.632 145.576L131.619 143.753C125.718 143.753 120.934 138.969 120.934 133.068V114.07H131.632Z" fill="#A4DD7C"/>
<path d="M41.7838 126.162C41.7838 118.95 35.9381 113.102 28.7236 113.102C21.5117 113.102 15.6635 118.95 15.6635 126.162V145.254H17.3567V126.466C17.3567 120.189 22.4464 114.721 28.7236 114.721C35.0009 114.721 40.0906 120.186 40.0906 126.466V145.254H41.7838V126.162Z" fill="#A4DD7C"/>
<path d="M80.8143 128.272C80.3751 119.612 73.2142 112.727 64.4444 112.727C55.3912 112.727 48.0516 120.066 48.0516 129.119C48.0516 138.173 55.3912 145.512 64.4444 145.512C69.7104 145.512 74.3966 143.03 77.3948 139.171H75.2828C72.5834 142.08 68.7272 143.901 64.4444 143.901C56.5659 143.901 50.1278 137.736 49.6885 129.967H80.8347V128.274H80.8143V128.272ZM64.4444 114.338C72.3229 114.338 78.7611 120.503 79.2003 128.272H49.6911C50.1304 120.503 56.5659 114.338 64.4444 114.338Z" fill="#A4DD7C"/>
<path d="M185.193 126.162C185.193 118.95 179.347 113.102 172.133 113.102C164.921 113.102 159.072 118.95 159.072 126.162V145.254H160.766V126.466C160.766 120.189 165.855 114.721 172.133 114.721C178.41 114.721 183.499 120.186 183.499 126.466V145.254H185.193V126.162Z" fill="#A4DD7C"/>
<path d="M215.3 116.958L215.708 116.251L214.893 117.666C218.006 120.209 220.065 123.999 220.307 128.274H190.798C191.237 120.506 197.673 114.341 205.551 114.341V112.729C196.498 112.729 189.158 120.069 189.158 129.122C189.158 138.175 196.498 145.515 205.551 145.515C210.817 145.515 215.504 143.033 218.502 139.174H216.39C213.69 142.083 209.834 143.903 205.551 143.903C197.673 143.903 191.235 137.739 190.795 129.97H221.942V128.277H221.921C221.673 123.407 219.298 119.096 215.708 116.256L214.891 117.668L215.3 116.958Z" fill="#A4DD7C"/>
<path d="M108.329 132.128C107.442 130.973 106.344 130.105 105.06 129.551C103.819 129.015 102.136 128.463 100.062 127.914C98.1159 127.406 96.5402 126.898 95.3757 126.405C94.2571 125.932 93.3046 125.189 92.5435 124.198C91.7953 123.223 91.4148 121.882 91.4148 120.212C91.4148 118.871 91.7825 117.681 92.5052 116.672C93.2382 115.651 94.2316 114.851 95.4549 114.289C96.6909 113.723 98.07 113.437 99.5588 113.434C101.252 113.434 102.713 113.735 103.9 114.328C105.085 114.92 106.007 115.656 106.635 116.514C107.271 117.38 107.695 118.24 107.894 119.068L107.963 119.354H109.636L109.539 118.899C109.284 117.727 108.75 116.596 107.946 115.538C107.139 114.478 106.015 113.592 104.6 112.9C103.188 112.211 101.492 111.861 99.5614 111.861C97.6307 111.861 95.9375 112.241 94.4487 112.995C92.9521 113.751 91.7825 114.785 90.9755 116.069C90.1659 117.354 89.7573 118.748 89.7573 120.209C89.7573 122.227 90.2196 123.861 91.1313 125.061C92.0328 126.246 93.1462 127.135 94.4461 127.707C95.7026 128.259 97.3932 128.818 99.4669 129.367C101.415 129.878 102.983 130.376 104.133 130.853C105.236 131.313 106.173 132.031 106.919 132.991C107.652 133.938 108.025 135.246 108.025 136.883C108.025 138.139 107.693 139.299 107.036 140.326C106.378 141.357 105.415 142.192 104.179 142.81C102.932 143.433 101.472 143.75 99.8372 143.75C97.7865 143.75 96.0933 143.382 94.8062 142.66C93.5191 141.937 92.5716 141.064 91.9843 140.065C91.3892 139.049 91.0138 138.022 90.8708 137.013L90.8248 136.691H89.17L89.2159 137.108C89.3743 138.561 89.885 139.93 90.738 141.173C91.591 142.422 92.8117 143.439 94.3695 144.192C95.9171 144.943 97.7584 145.323 99.8398 145.323C101.929 145.323 103.737 144.917 105.213 144.115C106.697 143.311 107.826 142.243 108.571 140.941C109.314 139.644 109.692 138.277 109.692 136.883C109.692 134.896 109.238 133.292 108.339 132.12L108.329 132.128Z" fill="#A4DD7C"/>
<path d="M205.552 104.179C209.097 104.179 212.348 105.425 214.894 107.507L215.711 106.1C212.917 103.89 209.39 102.573 205.552 102.573V104.179Z" fill="#D6BA86"/>
<path d="M12.4512 145.254C63.2693 110.63 146.585 108.99 201.062 136.089C202.804 136.924 205.292 138.336 207 139.227C208.366 139.994 210.052 141.051 211.334 141.794C213.152 142.872 215.188 144.335 216.945 145.471C215.154 144.404 212.994 142.961 211.216 141.991C210.072 141.337 207.914 140.142 206.829 139.544C205.498 138.865 202.945 137.588 201.596 136.911C146.028 110.906 64.8987 112.262 12.4512 145.257V145.254Z" fill="#D6BA86"/>
</svg>
